PathFileType	4	(X/Y/Z)	C:/Users/opensim2020/Desktop/walking_exp_matlab/subject06_walking23_straight_02.trc																																																																																																																																					
DataRate	CameraRate	NumFrames	NumMarkers	Units	OrigDataRate	OrigDataStartFrame	OrigNumFrames																																																																																																																																	
100	100	4	45	mm	100	1277	114																																																																																																																																	
Frame#	Time	LFHD			RFHD			LBHD			RBHD			C7			T10			CLAV			STRN			RBAK			LSHO			LUPA			LELB			LFRM			LWRA			LWRB			LFIN			RSHO			RUPA			RELB			RFRM			RWRA			RWRB			RFIN			LASI			RASI			LPSI			RPSI			LTHI			LKNE			LTIB			LANK			LHEE			LTOE			RTHI			RKNE			RTIB			RANK			RHEE			RTOE			*39			*40			*41			*42			*43			*44		
		X1	Y1	Z1	X2	Y2	Z2	X3	Y3	Z3	X4	Y4	Z4	X5	Y5	Z5	X6	Y6	Z6	X7	Y7	Z7	X8	Y8	Z8	X9	Y9	Z9	X10	Y10	Z10	X11	Y11	Z11	X12	Y12	Z12	X13	Y13	Z13	X14	Y14	Z14	X15	Y15	Z15	X16	Y16	Z16	X17	Y17	Z17	X18	Y18	Z18	X19	Y19	Z19	X20	Y20	Z20	X21	Y21	Z21	X22	Y22	Z22	X23	Y23	Z23	X24	Y24	Z24	X25	Y25	Z25	X26	Y26	Z26	X27	Y27	Z27	X28	Y28	Z28	X29	Y29	Z29	X30	Y30	Z30	X31	Y31	Z31	X32	Y32	Z32	X33	Y33	Z33	X34	Y34	Z34	X35	Y35	Z35	X36	Y36	Z36	X37	Y37	Z37	X38	Y38	Z38	X39	Y39	Z39	X40	Y40	Z40	X41	Y41	Z41	X42	Y42	Z42	X43	Y43	Z43	X44	Y44	Z44	X45	Y45	Z45
																																																																																																																																								
1	0	-809.53394	1660.37878	895.22485	-788.50232	1660.49414	1025.74023	-941.6897	1610.30127	921.09247	-918.90283	1614.95459	1048.33667	-934.82843	1454.32397	976.1463	-972.05316	1127.66504	985.25653	-823.39038	1379.19165	975.25507	-781.27295	1207.37317	969.8772	-1005.94098	1286.14355	1057.76611	-881.99573	1408.98975	814.77899	-885.58679	1206.84473	744.04895	-888.74347	1093.63513	733.80066	-838.48071	951.20886	714.79669	-751.31439	856.67621	756.78271	-810.77777	835.39532	722.98853	-748.75409	768.78003	721.11505	-869.07739	1412.05737	1135.65051	-910.3291	1218.21301	1229.73303	-904.27936	1096.99072	1246.49805	-878.44897	980.3736	1266.53943	-803.80579	848.43134	1235.57239	-857.33575	844.87372	1277.9458	-812.68353	772.83533	1279.5343	-802.21893	965.23926	877.31604	-793.89697	978.69904	1095.09094	-957.41766	989.50867	907.83527	-944.91815	1002.12494	1073.71997	-822.84894	642.94183	829.53174	-779.25421	486.49161	853.60931	-943.08655	304.54233	864.75623	-1055.16553	174.17178	903.13306	-1094.04187	185.72473	950.67645	-965.96497	60.77849	902.59833	-835.57831	639.35101	1150.57654	-826.07458	514.67487	1121.5929	-888.0202	252.47397	1122.2688	-916.61792	68.85865	1073.4751	-959.74469	45.08311	1031.50366	-764.31287	32.96948	1065.83215	-898.07068	1706.35156	966.08411	NaN	NaN	NaN	NaN	NaN	NaN	NaN	NaN	NaN	NaN	NaN	NaN	NaN	NaN	NaN
2	0.01	-796.03198	1660.46069	895.2951	-774.69598	1660.77649	1025.78137	-928.20129	1610.7937	921.70831	-905.33594	1615.71619	1049.01526	-921.56506	1454.63147	977.16589	-958.56323	1127.99036	986.55615	-810.27979	1379.58301	975.93561	-767.83588	1207.87524	970.88226	-992.24792	1286.51404	1059.40857	-869.59656	1409.25647	815.6767	-875.36267	1207.26343	744.58508	-879.6181	1094.14124	734.67511	-834.2699	950.21252	714.16278	-750.48688	851.87793	754.81879	-810.99274	833.34186	721.28052	-751.92792	764.1228	718.60077	-855.45099	1412.77393	1136.40723	-894.70557	1219	1231.42224	-887.55786	1097.83582	1248.46106	-858.89581	981.95923	1268.30701	-780.63013	852.26703	1236.51636	-833.93713	847.27448	1279.31274	-787.09039	776.30743	1280.21838	-788.14288	966.16052	878.55743	-780.93231	978.28076	1096.23035	-943.59564	990.29047	908.55188	-931.72369	1002.17615	1074.55054	-803.48438	645.35913	829.09943	-757.38873	489.73843	853.8548	-914.7796	301.13885	865.14581	-1019.69183	165.14459	904.18231	-1058.29272	173.72849	952.73639	-923.74304	57.816	900.47876	-827.66382	638.46124	1150.81433	-820.78601	513.49921	1122.64966	-886.90289	252.50137	1122.39905	-916.53955	69.07616	1073.18945	-959.68719	45.53334	1031.11206	-764.25171	32.81445	1066.13623	-884.18506	1706.85999	966.23041	NaN	NaN	NaN	NaN	NaN	NaN	NaN	NaN	NaN	NaN	NaN	NaN	NaN	NaN	NaN
3	0.02	-782.56305	1660.28613	895.39941	-760.89819	1660.78662	1025.81946	-914.79297	1610.94324	922.25049	-891.42902	1616.07129	1049.27344	-908.2417	1454.6803	978.19476	-945.0462	1127.90295	987.77924	-796.90668	1379.69897	976.57623	-754.37744	1208.0625	971.76599	-978.61053	1286.48071	1060.86182	-857.11481	1409.12622	816.50116	-865.17871	1207.27258	745.11932	-871.03101	1094.20313	734.86389	-830.00525	949.05328	713.46185	-749.90961	847.17786	752.95599	-811.20947	831.36853	719.64233	-755.11639	759.57751	716.15405	-841.63776	1413.00378	1137.15686	-879.16168	1219.35083	1233.03821	-870.94598	1098.33057	1250.38257	-839.38318	983.31598	1270.01172	-757.48401	855.99561	1237.40564	-810.35645	849.42883	1280.47375	-761.34229	779.70551	1280.60547	-773.86963	966.81116	879.70667	-767.86389	977.61127	1097.24988	-929.74207	990.64502	909.14575	-918.60596	1001.91046	1075.28162	-784.5332	647.54865	828.37	-736.05365	492.79166	854.03876	-885.57452	297.09814	866.17511	-983.28516	155.62695	905.28491	-1021.70062	161.48689	954.51538	-881.0733	54.83333	898.65472	-819.80701	637.81891	1151.2533	-815.29932	512.59973	1123.83496	-884.86407	252.31987	1122.72729	-916.37683	69.29347	1073.17786	-959.47583	45.84995	1030.83618	-764.17041	32.58733	1066.4364	-870.52734	1706.99146	966.53564	NaN	NaN	NaN	NaN	NaN	NaN	NaN	NaN	NaN	NaN	NaN	NaN	NaN	NaN	NaN
4	0.03	-769.17749	1659.81409	895.47925	-747.22369	1660.57031	1025.9325	-901.35748	1610.72913	922.737	-877.9007	1616.08875	1049.89734	-894.81775	1454.45508	979.10193	-931.54248	1127.4126	988.90637	-783.48883	1379.46753	977.23218	-740.97772	1207.96497	972.61945	-964.99664	1286.07373	1062.16553	-844.46423	1408.65576	817.25616	-854.88403	1206.96326	745.64594	-861.99445	1094.01404	735.14252	-825.75836	947.80707	712.68097	-749.05243	842.57263	750.99683	-811.43597	829.50757	718.20599	-758.34076	755.32092	713.89038	-827.63446	1412.77783	1137.86279	-863.74799	1219.27295	1234.6311	-854.3941	1098.50269	1252.33313	-819.86169	984.39758	1271.67188	-734.41327	859.74603	1238.23438	-786.35919	851.24188	1281.25208	-735.73737	783.18488	1281.10535	-759.94946	966.91071	880.95929	-754.95117	976.64075	1098.18396	-915.86102	990.60767	909.53961	-905.7558	1001.40216	1075.7948	-765.66217	649.46844	827.66016	-715.28247	495.45193	854.02728	-856.38782	292.53909	866.81195	-946.11145	145.89783	906.38562	-984.24329	149.19745	956.00415	-838.42584	51.5991	897.1463	-811.68378	637.00555	1151.31213	-809.42682	511.7052	1124.8562	-882.06677	252.14847	1123.05518	-916.19873	69.59511	1073.33557	-959.13147	46.17477	1030.69531	-764.01825	32.38576	1066.73035	-856.88434	1706.82263	966.75311	NaN	NaN	NaN	NaN	NaN	NaN	NaN	NaN	NaN	NaN	NaN	NaN	NaN	NaN	NaN
